<?xml version="1.0" encoding="iso-8859-1"?>
<!-- Generator: Adobe Illustrator 20.1.0, SVG Export Plug-In . SVG Version: 6.00 Build 0)  -->
<svg xmlns="http://www.w3.org/2000/svg" xmlns:xlink="http://www.w3.org/1999/xlink" version="1.1" id="&#1057;&#1083;&#1086;&#1081;_1" x="0px" y="0px" viewBox="0 0 64 64" style="enable-background:new 0 0 64 64;" xml:space="preserve">
<linearGradient id="SVGID_1__52540" gradientUnits="userSpaceOnUse" x1="32" y1="6" x2="32" y2="58.0685" spreadMethod="reflect">
	<stop offset="0" style="stop-color:#1A6DFF"/>
	<stop offset="1" style="stop-color:#C822FF"/>
</linearGradient>
<path style="fill:url(#SVGID_1__52540);" d="M50.537,15.124l-7.66-7.661C41.934,6.52,40.678,6,39.342,6H15c-1.654,0-3,1.346-3,3v40v2v4  c0,1.654,1.346,3,3,3h34c1.654,0,3-1.346,3-3v-4v-1V18.658C52,17.322,51.48,16.067,50.537,15.124z M48.585,16H43  c-0.552,0-1-0.448-1-1V9.414L48.585,16z M49,56H15c-0.552,0-1-0.448-1-1v-1.185C14.314,53.928,14.647,54,15,54h34  c0.353,0,0.686-0.072,1-0.184V55C50,55.552,49.552,56,49,56z M50,51c0,0.552-0.448,1-1,1H15c-0.552,0-1-0.448-1-1v-2V9  c0-0.552,0.448-1,1-1h24.342C39.566,8,39.786,8.03,40,8.078V15c0,1.654,1.346,3,3,3h6.922C49.97,18.214,50,18.433,50,18.658V50V51z"/>
<linearGradient id="SVGID_2__52540" gradientUnits="userSpaceOnUse" x1="32" y1="26.0417" x2="32" y2="28.0001" spreadMethod="reflect">
	<stop offset="0" style="stop-color:#6DC7FF"/>
	<stop offset="1" style="stop-color:#E6ABFF"/>
</linearGradient>
<rect x="18" y="26" style="fill:url(#SVGID_2__52540);" width="28" height="2"/>
<linearGradient id="SVGID_3__52540" gradientUnits="userSpaceOnUse" x1="32" y1="29.9792" x2="32" y2="32.0417" spreadMethod="reflect">
	<stop offset="0" style="stop-color:#6DC7FF"/>
	<stop offset="1" style="stop-color:#E6ABFF"/>
</linearGradient>
<rect x="18" y="30" style="fill:url(#SVGID_3__52540);" width="28" height="2"/>
<linearGradient id="SVGID_4__52540" gradientUnits="userSpaceOnUse" x1="32" y1="33.9792" x2="32" y2="36.0418" spreadMethod="reflect">
	<stop offset="0" style="stop-color:#6DC7FF"/>
	<stop offset="1" style="stop-color:#E6ABFF"/>
</linearGradient>
<rect x="18" y="34" style="fill:url(#SVGID_4__52540);" width="28" height="2"/>
<linearGradient id="SVGID_5__52540" gradientUnits="userSpaceOnUse" x1="29" y1="37.9375" x2="29" y2="40.1123" spreadMethod="reflect">
	<stop offset="0" style="stop-color:#6DC7FF"/>
	<stop offset="1" style="stop-color:#E6ABFF"/>
</linearGradient>
<rect x="18" y="38" style="fill:url(#SVGID_5__52540);" width="22" height="2"/>
</svg>
